<svg width="24" height="24" viewBox="0 0 24 24" fill="none" xmlns="http://www.w3.org/2000/svg">
<path fill-rule="evenodd" clip-rule="evenodd" d="M17.0321 15.6176C18.2638 14.0779 19.0003 12.1249 19.0003 10C19.0003 5.02972 14.9706 1 10.0003 1C5.03002 1 1.00031 5.02972 1.00031 10C1.00031 14.9703 5.03002 19 10.0003 19C12.1252 19 14.0782 18.2635 15.6179 17.0318L21.2932 22.7071C21.6837 23.0976 22.3169 23.0976 22.7074 22.7071C23.0979 22.3166 23.0979 21.6834 22.7074 21.2929L17.0321 15.6176ZM10.0003 3C13.866 3 17.0003 6.13428 17.0003 10C17.0003 13.8657 13.866 17 10.0003 17C6.13459 17 3.00031 13.8657 3.00031 10C3.00031 6.13428 6.13459 3 10.0003 3Z" fill="#2D2D2E"/>
</svg>
